<?xml version="1.0" standalone="no"?>
<!DOCTYPE svg PUBLIC "-//W3C//DTD SVG 20010904//EN"
 "http://www.w3.org/TR/2001/REC-SVG-20010904/DTD/svg10.dtd">
<svg version="1.0" xmlns="http://www.w3.org/2000/svg"
 width="700.000000pt" height="700.000000pt" viewBox="0 0 700.000000 700.000000"
 preserveAspectRatio="xMidYMid meet">
<metadata>
Created by potrace 1.14, written by Peter Selinger 2001-2017
</metadata>
<g transform="translate(0.000000,700.000000) scale(0.100000,-0.100000)"
fill="#000000" stroke="none">
<path d="M3734 4812 l-50 -3 2 -102 c1 -56 2 -105 3 -108 0 -3 696 -5 1546 -5
l1546 0 -3 109 -3 109 -1495 2 c-822 0 -1518 0 -1546 -2z"/>
<path d="M220 4333 c-1 -107 -1 -1592 0 -1675 l0 -68 279 0 278 0 0 390 c0
214 1 392 4 394 2 2 91 -136 198 -308 l193 -312 135 0 135 1 77 130 c43 72
131 219 195 328 64 108 118 197 120 197 2 0 3 -75 4 -167 0 -93 1 -277 2 -410
l1 -243 280 0 279 0 -4 908 c-2 499 -4 908 -5 910 -1 1 -113 2 -250 2 l-249 0
-88 -147 c-49 -82 -97 -164 -108 -183 -10 -19 -27 -46 -37 -59 -11 -13 -19
-28 -19 -33 0 -4 -15 -32 -34 -61 -19 -28 -91 -149 -161 -267 -70 -118 -128
-216 -129 -217 -1 -1 -134 216 -296 482 l-295 484 -252 0 -253 1 0 -77z"/>
<path d="M2699 4408 c-3 -10 -4 -1795 -1 -1805 3 -10 74 -13 308 -13 l304 0 0
223 0 223 158 1 c289 2 412 24 571 100 75 36 108 59 170 121 127 126 181 252
187 432 4 133 -15 228 -68 339 -82 171 -261 301 -483 350 -27 6 -61 14 -75 18
-25 6 -1069 17 -1071 11z m961 -496 c92 -43 115 -80 115 -188 0 -71 -3 -85
-27 -121 -17 -26 -45 -49 -75 -64 -43 -22 -64 -24 -205 -27 l-158 -4 0 214 0
215 153 -2 c131 -2 159 -5 197 -23z"/>
<path d="M4600 3500 l0 -910 279 0 279 0 -1 395 c-1 217 0 395 3 395 5 0 92
-138 289 -458 29 -48 65 -105 80 -127 l27 -40 132 0 133 0 28 45 c16 25 104
172 196 328 93 155 170 281 171 279 2 -2 4 -186 5 -410 l1 -407 280 0 279 0
-3 910 -2 910 -252 0 -252 0 -69 -115 c-37 -63 -72 -123 -78 -133 -39 -69
-430 -721 -431 -719 -1 1 -42 68 -91 148 -48 80 -180 297 -293 482 l-205 336
-252 1 -253 0 0 -910z"/>
<path d="M224 2398 c-7 -11 -8 -198 -1 -204 4 -4 2910 -8 3072 -4 20 0 21 6
19 103 -1 56 -2 105 -3 108 -2 9 -3081 6 -3087 -3z"/>
</g>
</svg>
