<?xml version="1.0" encoding="UTF-8" standalone="no"?><!DOCTYPE svg PUBLIC "-//W3C//DTD SVG 1.1//EN" "http://www.w3.org/Graphics/SVG/1.1/DTD/svg11.dtd"><svg width="100%" height="100%" viewBox="0 0 32 32" version="1.1" xmlns="http://www.w3.org/2000/svg" style="fill-rule:evenodd;clip-rule:evenodd;stroke-linejoin:round;stroke-miterlimit:2;"><path d="M8.42,20.155l-0.024,-3.787l-1.804,3.039l-1.235,0l-1.805,-2.908l0,3.656l-2.552,0l0,-8.31l2.303,-0l2.707,4.428l2.635,-4.428l2.304,-0l0.023,8.31l-2.552,0Z" style="fill-rule:nonzero;"/><path d="M16.326,11.845c0.768,-0 1.437,0.127 2.007,0.38c0.57,0.253 1.009,0.617 1.318,1.092c0.308,0.475 0.463,1.029 0.463,1.662c-0,0.633 -0.155,1.187 -0.463,1.662c-0.309,0.475 -0.748,0.839 -1.318,1.092c-0.57,0.254 -1.239,0.38 -2.007,0.38l-1.199,0l0,2.042l-2.801,0l-0,-8.31l4,-0Zm-0.178,4.108c0.38,-0 0.665,-0.086 0.855,-0.256c0.19,-0.17 0.285,-0.409 0.285,-0.718c0,-0.309 -0.095,-0.548 -0.285,-0.718c-0.19,-0.17 -0.475,-0.255 -0.855,-0.255l-1.021,-0l0,1.947l1.021,-0Z" style="fill-rule:nonzero;"/><path d="M28.448,20.155l-0.024,-3.787l-1.805,3.039l-1.234,0l-1.805,-2.908l0,3.656l-2.552,0l-0,-8.31l2.303,-0l2.707,4.428l2.635,-4.428l2.303,-0l0.024,8.31l-2.552,0Z" style="fill-rule:nonzero;"/><rect x="1" y="21" width="14.157" height="1" style="fill:#43f20d;"/><rect x="16.843" y="10" width="14.157" height="1" style="fill:#f20d5e;"/></svg>
